<?xml version="1.0" encoding="utf-8"?>
<!-- Generator: Adobe Illustrator 26.1.0, SVG Export Plug-In . SVG Version: 6.00 Build 0)  -->
<svg version="1.1" id="Layer_1" xmlns="http://www.w3.org/2000/svg" xmlns:xlink="http://www.w3.org/1999/xlink" x="0px" y="0px"
	 viewBox="0 0 718.45 515.61" style="enable-background:new 0 0 718.45 515.61;" xml:space="preserve">
<style type="text/css">
	.st0{fill:none;stroke:#FFFFFF;stroke-width:11;stroke-miterlimit:10;}
	.st1{display:none;fill:none;stroke:#FFFFFF;stroke-width:3;stroke-miterlimit:10;}
	.st2{display:none;fill:#FFFFFF;stroke:#FFFFFF;stroke-width:6;stroke-miterlimit:10;}
	.st3{display:none;fill:none;stroke:#FFFFFF;stroke-width:6;stroke-miterlimit:10;}
	.st4{fill:#FFFFFF;}
	.st5{font-family:'CenturyGothic';}
	.st6{font-size:120px;}
	.st7{display:none;fill:none;stroke:#FFFFFF;stroke-width:7;stroke-miterlimit:10;}
</style>
<path class="st0" d="M691.37,498.06H27.08c-4.59,0-8.3-1.47-8.3-3.28V20.83c0-1.81,3.72-3.28,8.3-3.28h664.3
	c4.59,0,8.3,1.47,8.3,3.28v473.96C699.68,496.6,695.96,498.06,691.37,498.06z"/>
<path class="st1" d="M485.5-55.94H239.92c-5.77,0-10.45-4.68-10.45-10.45v-7.94c0-5.77,4.68-10.45,10.45-10.45H485.5
	c5.77,0,10.45,4.68,10.45,10.45v7.94C495.95-60.61,491.27-55.94,485.5-55.94z"/>
<path class="st2" d="M424.06-69.32c0,3.05-2.47,5.52-5.52,5.52s-5.52-2.47-5.52-5.52c0-3.05,2.47-5.52,5.52-5.52
	S424.06-72.37,424.06-69.32"/>
<path class="st3" d="M435.54,569.06h-144c-1.6,0-2.9-1.3-2.9-2.9l0,0c0-1.6,1.3-2.9,2.9-2.9h144c1.6,0,2.9,1.3,2.9,2.9l0,0
	C438.44,567.76,437.14,569.06,435.54,569.06z"/>
<text transform="matrix(1 0 0 1 233.1027 290.9476)" class="st4 st5 st6">Blog</text>
<line class="st1" x1="217.29" y1="-81.35" x2="500.39" y2="-81.35"/>
<line class="st1" x1="217.29" y1="-83.77" x2="496.48" y2="-83.77"/>
<path class="st7" d="M390.46-66.97h-55.49c-0.55,0-1-0.45-1-1v-4.39c0-0.55,0.45-1,1-1h55.49c0.55,0,1,0.45,1,1v4.39
	C391.45-67.41,391.01-66.97,390.46-66.97z"/>
<line class="st0" x1="18.77" y1="72.77" x2="699.68" y2="72.77"/>
<line class="st0" x1="643.58" y1="44.35" x2="676.1" y2="44.35"/>
<line class="st0" x1="619.35" y1="17.55" x2="619.35" y2="72.77"/>
<line class="st0" x1="51.42" y1="140.45" x2="333.23" y2="140.45"/>
<line class="st0" x1="51.42" y1="239.7" x2="192.32" y2="239.7"/>
<line class="st0" x1="51.42" y1="190.32" x2="192.32" y2="190.32"/>
<line class="st0" x1="51.42" y1="387.69" x2="232.58" y2="387.69"/>
<line class="st0" x1="51.42" y1="338.55" x2="232.58" y2="338.55"/>
<rect x="523.13" y="320.55" class="st0" width="91.35" height="91.35"/>
<line class="st0" x1="51.19" y1="288.55" x2="192.1" y2="288.55"/>
</svg>
