<?xml version="1.0" encoding="utf-8"?>
<!-- Generator: Adobe Illustrator 26.1.0, SVG Export Plug-In . SVG Version: 6.00 Build 0)  -->
<svg version="1.1" id="Layer_1" xmlns="http://www.w3.org/2000/svg" xmlns:xlink="http://www.w3.org/1999/xlink" x="0px" y="0px"
	 viewBox="0 0 417.29 711.87" style="enable-background:new 0 0 417.29 711.87;" xml:space="preserve">
<style type="text/css">
	.st0{fill:none;stroke:#FFFFFF;stroke-width:11;stroke-miterlimit:10;}
	.st1{fill:none;stroke:#FFFFFF;stroke-width:3;stroke-miterlimit:10;}
	.st2{fill:#FFFFFF;stroke:#FFFFFF;stroke-width:6;stroke-miterlimit:10;}
	.st3{fill:none;stroke:#FFFFFF;stroke-width:6;stroke-miterlimit:10;}
	.st4{fill:#FFFFFF;}
	.st5{font-family:'CenturyGothic';}
	.st6{font-size:72px;}
	.st7{fill:none;stroke:#FFFFFF;stroke-width:7;stroke-miterlimit:10;}
</style>
<path class="st0" d="M373.55,697.94H43.74c-14.11,0-25.55-11.44-25.55-25.55V42.97c0-14.11,11.44-25.55,25.55-25.55h329.81
	c14.11,0,25.55,11.44,25.55,25.55v629.42C399.1,686.5,387.66,697.94,373.55,697.94z"/>
<path class="st1" d="M331.43,46.26H85.86c-5.77,0-10.45-4.68-10.45-10.45v-7.94c0-5.77,4.68-10.45,10.45-10.45h245.57
	c5.77,0,10.45,4.68,10.45,10.45v7.94C341.88,41.58,337.2,46.26,331.43,46.26z"/>
<path class="st2" d="M269.99,32.87c0,3.05-2.47,5.52-5.52,5.52s-5.52-2.47-5.52-5.52s2.47-5.52,5.52-5.52S269.99,29.82,269.99,32.87
	"/>
<path class="st3" d="M281.48,671.26h-144c-1.6,0-2.9-1.3-2.9-2.9l0,0c0-1.6,1.3-2.9,2.9-2.9h144c1.6,0,2.9,1.3,2.9,2.9l0,0
	C284.38,669.96,283.08,671.26,281.48,671.26z"/>
<text transform="matrix(1 0 0 1 62.465 384.9803)" class="st4 st5 st6">My Story</text>
<line class="st1" x1="63.23" y1="20.84" x2="346.32" y2="20.84"/>
<line class="st1" x1="63.23" y1="18.42" x2="342.41" y2="18.42"/>
<path class="st7" d="M236.39,35.23H180.9c-0.55,0-1-0.45-1-1v-4.39c0-0.55,0.45-1,1-1h55.49c0.55,0,1,0.45,1,1v4.39
	C237.39,34.78,236.94,35.23,236.39,35.23z"/>
</svg>
